<svg xmlns="http://www.w3.org/2000/svg" viewBox="0 0 540 150"><defs><style>.cls-1{fill:#344665;}.cls-2{fill:#8993a4;}.cls-3{fill:#7a869a;}</style></defs><title>atlassian-strapline-onecolor-neutral</title><g id="Logos"><path class="cls-1" d="M95.51,121.57h2v10.06c0,2.66-1.17,4.49-3.89,4.49a7,7,0,0,1-2.38-.38v-1.91a5.58,5.58,0,0,0,2,.37c1.67,0,2.24-1,2.24-2.44Z"/><path class="cls-1" d="M101.1,120.8a1.32,1.32,0,1,1-1.32,1.32A1.24,1.24,0,0,1,101.1,120.8Zm-1,4.23H102v11h-1.89Z"/><path class="cls-1" d="M106.73,136h-1.85V125h1.85V127a3.62,3.62,0,0,1,3.89-2.09v1.84c-2.42-.24-3.89.49-3.89,2.82Z"/><path class="cls-1" d="M119.49,134.05a3.87,3.87,0,0,1-3.72,2.2c-2.92,0-4.4-2.49-4.4-5.72s1.54-5.72,4.62-5.72a3.61,3.61,0,0,1,3.5,2.16V125h1.89v11h-1.89Zm-3.21.44c1.69,0,3.21-1.08,3.21-3.52v-.88c0-2.44-1.39-3.52-3-3.52-2.14,0-3.24,1.41-3.24,4S114.32,134.49,116.28,134.49Z"/><path class="cls-2" d="M136,120.43h1.89V138H136Z"/><path class="cls-1" d="M163.25,135.39a7.25,7.25,0,0,1-3.83.86c-4.75,0-7.44-2.86-7.44-7.41s2.69-7.49,7.4-7.49a6.6,6.6,0,0,1,3.85,1v1.91a6.72,6.72,0,0,0-3.85-1c-3.39,0-5.42,2.24-5.42,5.57a5.16,5.16,0,0,0,5.53,5.52,8.12,8.12,0,0,0,3.76-.88Z"/><path class="cls-1" d="M164.63,130.51c0-3.3,1.94-5.7,5.24-5.7s5.19,2.4,5.19,5.7-1.91,5.74-5.19,5.74S164.63,133.81,164.63,130.51Zm1.85,0c0,2.09,1,4,3.39,4s3.35-1.89,3.35-4-1-3.94-3.35-3.94S166.48,128.42,166.48,130.51Z"/><path class="cls-1" d="M186.61,136h-1.89v-6.64c0-2-.79-2.86-2.6-2.86s-3,1.16-3,3.38V136h-1.89V125h1.89v1.8a3.89,3.89,0,0,1,3.48-2c2.53,0,4,1.74,4,4.77Z"/><path class="cls-1" d="M191.87,125h2.84v1.76h-2.84V136H190v-9.24h-1.78V125H190v-1.21a3.16,3.16,0,0,1,3.5-3.43,4.54,4.54,0,0,1,1.28.17v1.74a6,6,0,0,0-1.19-.11,1.56,1.56,0,0,0-1.74,1.67Z"/><path class="cls-1" d="M199.7,136.1c-1.8,0-2.95-.86-2.95-2.89V120.43h1.89V133c0,1,.67,1.35,1.48,1.35a3.51,3.51,0,0,0,.55,0V136A4.16,4.16,0,0,1,199.7,136.1Z"/><path class="cls-1" d="M202.27,125h1.9v6.64c0,2,.79,2.86,2.59,2.86s3-1.16,3-3.38V125h1.9v11h-1.9v-1.8a3.86,3.86,0,0,1-3.47,2c-2.53,0-4-1.74-4-4.77Z"/><path class="cls-1" d="M219.74,136.25c-4.11,0-5.92-2.38-5.92-5.74s1.85-5.7,5.2-5.7,4.75,2.35,4.75,5.7v.86h-8c.26,1.87,1.47,3.08,4.07,3.08a9.75,9.75,0,0,0,3.34-.6v1.74A7.9,7.9,0,0,1,219.74,136.25Zm-4-6.51h6.14c-.11-2.05-1-3.21-2.93-3.21S215.91,127.82,215.72,129.74Z"/><path class="cls-1" d="M235.36,136h-1.89v-6.64c0-2-.79-2.86-2.59-2.86s-3,1.16-3,3.38V136H226V125h1.89v1.8a3.89,3.89,0,0,1,3.48-2c2.53,0,4,1.74,4,4.77Z"/><path class="cls-1" d="M245.77,135.74a6,6,0,0,1-2.69.51c-3.91,0-5.74-2.38-5.74-5.74s1.83-5.7,5.74-5.7a5.75,5.75,0,0,1,2.62.53v1.76a5.52,5.52,0,0,0-2.48-.53,3.65,3.65,0,0,0-4,3.94c0,2.13,1.19,3.94,4.07,3.94a7,7,0,0,0,2.51-.4Z"/><path class="cls-1" d="M253.18,136.25c-4.11,0-5.92-2.38-5.92-5.74s1.85-5.7,5.2-5.7,4.75,2.35,4.75,5.7v.86h-8c.26,1.87,1.47,3.08,4.07,3.08a9.75,9.75,0,0,0,3.34-.6v1.74A7.9,7.9,0,0,1,253.18,136.25Zm-4-6.51h6.14c-.11-2.05-1-3.21-2.93-3.21S249.35,127.82,249.16,129.74Z"/><path class="cls-2" d="M271.22,120.43h1.89V138h-1.89Z"/><path class="cls-1" d="M297.34,121.57v1.9h-4.43V136h-2V123.47h-4.42v-1.9Z"/><path class="cls-1" d="M300.15,136H298.3V125h1.85V127a3.62,3.62,0,0,1,3.9-2.09v1.84c-2.42-.24-3.9.49-3.9,2.82Z"/><path class="cls-1" d="M310.71,136.25c-4.11,0-5.92-2.38-5.92-5.74s1.85-5.7,5.2-5.7,4.75,2.35,4.75,5.7v.86h-8c.26,1.87,1.47,3.08,4.07,3.08a9.75,9.75,0,0,0,3.34-.6v1.74A7.93,7.93,0,0,1,310.71,136.25Zm-4-6.51h6.13c-.1-2.05-1-3.21-2.92-3.21S306.88,127.82,306.69,129.74Z"/><path class="cls-1" d="M319.93,136.1c-1.8,0-2.95-.86-2.95-2.89V120.43h1.89V133c0,1,.66,1.35,1.48,1.35a3.51,3.51,0,0,0,.55,0V136A4.31,4.31,0,0,1,319.93,136.1Z"/><path class="cls-1" d="M325.67,136.1c-1.8,0-2.95-.86-2.95-2.89V120.43h1.89V133c0,1,.66,1.35,1.48,1.35a3.51,3.51,0,0,0,.55,0V136A4.31,4.31,0,0,1,325.67,136.1Z"/><path class="cls-1" d="M327.7,130.51c0-3.3,1.93-5.7,5.23-5.7s5.19,2.4,5.19,5.7-1.91,5.74-5.19,5.74S327.7,133.81,327.7,130.51Zm1.84,0c0,2.09,1,4,3.39,4s3.35-1.89,3.35-4-1-3.94-3.35-3.94S329.54,128.42,329.54,130.51Z"/><path class="cls-2" d="M352.09,120.43H354V138h-1.89Z"/><path class="cls-1" d="M369.36,121.57h6.05c2.95,0,4.38,1.46,4.38,3.79a2.94,2.94,0,0,1-2.42,3.21c2.14.35,3.19,1.52,3.19,3.57,0,2.31-1.56,3.89-4.79,3.89h-6.41Zm2,1.9v4.31h3.81c1.87,0,2.64-.86,2.64-2.24s-.84-2.07-2.64-2.07Zm0,6.07v4.51h4.49c1.89,0,2.75-.68,2.75-2.13s-.81-2.38-2.79-2.38Z"/><path class="cls-1" d="M383.8,120.8a1.32,1.32,0,0,1,0,2.64,1.32,1.32,0,1,1,0-2.64Zm-1,4.23h1.89v11h-1.89Z"/><path class="cls-1" d="M391.94,134.25a5.61,5.61,0,0,0,1.18-.16v1.83a4.41,4.41,0,0,1-1.27.18,3.16,3.16,0,0,1-3.5-3.44v-5.87h-1.78V125h1.78V122.7h1.85V125h2.92v1.76H390.2v5.83A1.54,1.54,0,0,0,391.94,134.25Z"/><path class="cls-1" d="M397.43,134.09V136h-1.89v-15.6h1.89V127a3.89,3.89,0,0,1,3.72-2.2c2.93,0,4.4,2.49,4.4,5.72s-1.54,5.72-4.62,5.72A3.62,3.62,0,0,1,397.43,134.09Zm3.22-7.52c-1.7,0-3.22,1.08-3.22,3.52V131c0,2.44,1.39,3.52,3,3.52,2.13,0,3.23-1.41,3.23-4S402.61,126.57,400.65,126.57Z"/><path class="cls-1" d="M407.53,125h1.89v6.64c0,2,.8,2.86,2.6,2.86s3-1.16,3-3.38V125h1.89v11H415v-1.8a3.86,3.86,0,0,1-3.48,2c-2.53,0-4-1.74-4-4.77Z"/><path class="cls-1" d="M427.51,135.74a6,6,0,0,1-2.69.51c-3.91,0-5.74-2.38-5.74-5.74s1.83-5.7,5.74-5.7a5.75,5.75,0,0,1,2.62.53v1.76a5.52,5.52,0,0,0-2.48-.53,3.65,3.65,0,0,0-4,3.94c0,2.13,1.19,3.94,4.07,3.94a7,7,0,0,0,2.51-.4Z"/><path class="cls-1" d="M429.66,136v-15.6h1.9v9.75l4.73-5.15h2.46l-5.17,5.41L439,136H436.4l-4.84-5.15V136Z"/><path class="cls-1" d="M445.24,136.25c-4.11,0-5.92-2.38-5.92-5.74s1.85-5.7,5.19-5.7,4.76,2.35,4.76,5.7v.86h-8c.26,1.87,1.47,3.08,4.07,3.08a9.8,9.8,0,0,0,3.34-.6v1.74A7.93,7.93,0,0,1,445.24,136.25Zm-4-6.51h6.14c-.11-2.05-1-3.21-2.92-3.21S441.41,127.82,441.21,129.74Z"/><path class="cls-1" d="M455.87,134.25a5.61,5.61,0,0,0,1.18-.16v1.83a4.41,4.41,0,0,1-1.27.18,3.16,3.16,0,0,1-3.5-3.44v-5.87H450.5V125h1.78V122.7h1.85V125h2.92v1.76h-2.92v5.83A1.54,1.54,0,0,0,455.87,134.25Z"/><path class="cls-3" d="M19.64,64.84a1.88,1.88,0,0,0-3.2.35L.21,97.64a1.94,1.94,0,0,0,1.73,2.81h22.6a1.86,1.86,0,0,0,1.74-1.07C31.15,89.3,28.2,74,19.64,64.84Z"/><path class="cls-3" d="M31.55,35.32a42.81,42.81,0,0,0-2.5,42.27L40,99.38a1.93,1.93,0,0,0,1.73,1.07h22.6A2,2,0,0,0,66,97.64L34.85,35.31A1.83,1.83,0,0,0,31.55,35.32Z"/><polygon class="cls-3" points="492.52 46.02 492.52 100.45 504.12 100.45 504.12 58.94 509.01 69.96 525.42 100.45 540 100.45 540 46.02 528.4 46.02 528.4 81.15 524.01 70.95 510.83 46.02 492.52 46.02"/><rect class="cls-3" x="406.06" y="46.01" width="12.68" height="54.44"/><path class="cls-3" d="M391.43,84.38c0-9.53-5.05-14-19.31-17.07-7.87-1.74-9.77-3.48-9.77-6,0-3.14,2.81-4.47,8-4.47,6.3,0,12.52,1.91,18.4,4.56V48.91a41.59,41.59,0,0,0-18-3.72c-14.09,0-21.38,6.13-21.38,16.15,0,8,3.73,14.42,18.31,17.24,8.7,1.82,10.53,3.23,10.53,6.13s-1.83,4.64-8,4.64a44.84,44.84,0,0,1-21.13-5.72V96.72c4.39,2.16,10.19,4.56,21,4.56,15.24,0,21.29-6.79,21.29-16.9"/><path class="cls-3" d="M338.65,84.38c0-9.53-5-14-19.3-17.07-7.87-1.74-9.78-3.48-9.78-6,0-3.14,2.82-4.47,8-4.47,6.3,0,12.51,1.91,18.39,4.56V48.91a41.59,41.59,0,0,0-18-3.72c-14.08,0-21.38,6.13-21.38,16.15,0,8,3.73,14.42,18.32,17.24,8.7,1.82,10.52,3.23,10.52,6.13s-1.82,4.64-8,4.64a44.88,44.88,0,0,1-21.13-5.72V96.72c4.4,2.16,10.2,4.56,21,4.56,15.25,0,21.29-6.79,21.29-16.9"/><polygon class="cls-3" points="198.16 46.02 198.16 100.45 224.22 100.45 228.32 88.69 210.92 88.69 210.92 46.02 198.16 46.02"/><polygon class="cls-3" points="146.67 46.02 146.67 57.78 160.76 57.78 160.76 100.45 173.52 100.45 173.52 57.78 188.6 57.78 188.6 46.02 146.67 46.02"/><path class="cls-3" d="M128.17,46H111.45l-19,54.44H107l2.7-9.17a36,36,0,0,0,20.3,0l2.69,9.17h14.5Zm-8.36,35.46a24.74,24.74,0,0,1-7-1l7-23.77,7,23.77A24.79,24.79,0,0,1,119.81,81.47Z"/><path class="cls-3" d="M269.14,46H252.42l-19,54.44h14.5l2.7-9.17a36,36,0,0,0,20.3,0l2.69,9.17h14.5Zm-8.36,35.46a24.69,24.69,0,0,1-7-1l7-23.77,7,23.77A24.67,24.67,0,0,1,260.78,81.47Z"/><path class="cls-3" d="M464.42,46H447.7l-19,54.44h14.5l2.69-9.17a36,36,0,0,0,20.3,0l2.69,9.17h14.51Zm-8.36,35.46a24.79,24.79,0,0,1-7-1l7-23.77,7,23.77A24.79,24.79,0,0,1,456.06,81.47Z"/></g></svg>